<svg width="20" height="20" viewBox="0 0 20 20" fill="none" xmlns="http://www.w3.org/2000/svg">
<path fill-rule="evenodd" clip-rule="evenodd" d="M13.6757 2.30726L13.6766 2.93195C15.9721 3.11186 17.4885 4.67608 17.4909 7.07487L17.5 14.0964C17.5033 16.7117 15.8602 18.3209 13.2265 18.3251L6.79324 18.3334C4.17599 18.3367 2.51235 16.6892 2.50906 14.0664L2.50001 7.12735C2.49671 4.71272 3.95961 3.15267 6.25514 2.94194L6.25432 2.31726C6.2535 1.95077 6.52501 1.67508 6.88703 1.67508C7.24905 1.67425 7.52057 1.94911 7.52139 2.31559L7.52221 2.89863L12.4095 2.89197L12.4087 2.30893C12.4078 1.94245 12.6794 1.66758 13.0414 1.66675C13.3952 1.66592 13.6749 1.94078 13.6757 2.30726ZM3.7679 7.38471L16.2247 7.36806V7.07654C16.1893 5.28577 15.2908 4.34624 13.6782 4.20631L13.679 4.84765C13.679 5.20581 13.4001 5.48983 13.0463 5.48983C12.6843 5.49066 12.412 5.20747 12.412 4.84932L12.4111 4.17466L7.52386 4.18132L7.52468 4.85515C7.52468 5.21414 7.25399 5.49733 6.89197 5.49733C6.52995 5.49816 6.25761 5.2158 6.25761 4.85681L6.25679 4.21547C4.65238 4.37622 3.76461 5.31908 3.76708 7.12568L3.7679 7.38471ZM12.6999 11.1703V11.1795C12.7082 11.5626 13.0208 11.8533 13.4001 11.845C13.7704 11.8358 14.0657 11.5185 14.0575 11.1353C14.0402 10.7689 13.7432 10.4698 13.3738 10.4707C12.9953 10.479 12.6991 10.7872 12.6999 11.1703ZM13.3795 14.9101C13.0011 14.9018 12.6958 14.5861 12.695 14.203C12.6868 13.8198 12.9904 13.5025 13.3688 13.4933H13.3771C13.7638 13.4933 14.0772 13.809 14.0772 14.2005C14.0781 14.5919 13.7654 14.9093 13.3795 14.9101ZM9.3101 11.1836C9.32655 11.5668 9.64003 11.8658 10.0185 11.8491C10.3888 11.8316 10.6841 11.5151 10.6677 11.132C10.6586 10.7572 10.3542 10.4657 9.98395 10.4665C9.60547 10.4832 9.30928 10.8005 9.3101 11.1836ZM10.0218 14.8726C9.64333 14.8893 9.33067 14.5903 9.31339 14.2071C9.31339 13.824 9.60877 13.5075 9.98724 13.49C10.3575 13.4891 10.6627 13.7807 10.671 14.1546C10.6882 14.5386 10.392 14.8551 10.0218 14.8726ZM5.92028 11.2128C5.93673 11.5959 6.25021 11.8958 6.62868 11.8783C6.99893 11.8616 7.29431 11.5443 7.27703 11.1612C7.2688 10.7863 6.96438 10.4948 6.59331 10.4957C6.21483 10.5123 5.91945 10.8297 5.92028 11.2128ZM6.63197 14.8768C6.2535 14.8943 5.94084 14.5944 5.92357 14.2113C5.92274 13.8282 6.21894 13.5108 6.59742 13.4942C6.96766 13.4933 7.27291 13.7849 7.28114 14.1597C7.29842 14.5428 7.00304 14.8601 6.63197 14.8768Z" fill="#9CA5BF"/>
</svg>
