<svg width="20" height="20" viewBox="0 0 20 20" fill="none" xmlns="http://www.w3.org/2000/svg">
<path fill-rule="evenodd" clip-rule="evenodd" d="M14.6023 6.16342V7.4412C16.0376 7.88921 17.0833 9.18853 17.0833 10.7404V14.8545C17.0833 16.7757 15.4905 18.3334 13.5269 18.3334H6.474C4.50947 18.3334 2.91667 16.7757 2.91667 14.8545V10.7404C2.91667 9.18853 3.96329 7.88921 5.39774 7.4412V6.16342C5.40621 3.67907 7.46389 1.66675 9.9873 1.66675C12.5446 1.66675 14.6023 3.67907 14.6023 6.16342ZM10.0042 3.11596C11.7232 3.11596 13.1204 4.48235 13.1204 6.16342V7.26151H6.87961V6.14686C6.88808 4.47407 8.28527 3.11596 10.0042 3.11596ZM10.7409 13.7125C10.7409 14.1183 10.4107 14.4413 9.99577 14.4413C9.58931 14.4413 9.25907 14.1183 9.25907 13.7125V11.8741C9.25907 11.4766 9.58931 11.1536 9.99577 11.1536C10.4107 11.1536 10.7409 11.4766 10.7409 11.8741V13.7125Z" fill="#9CA5BF"/>
</svg>
