<svg width="20" height="20" viewBox="0 0 20 20" fill="none" xmlns="http://www.w3.org/2000/svg">
<path fill-rule="evenodd" clip-rule="evenodd" d="M14.1162 2.5C15.2337 2.5 16.3087 2.94167 17.0995 3.73417C17.8912 4.525 18.3337 5.59167 18.3337 6.70833V13.2917C18.3337 15.6167 16.442 17.5 14.1162 17.5H5.88367C3.55784 17.5 1.66701 15.6167 1.66701 13.2917V6.70833C1.66701 4.38333 3.54951 2.5 5.88367 2.5H14.1162ZM15.442 7.94999L15.5087 7.88332C15.7078 7.64165 15.7078 7.29165 15.4995 7.04999C15.3837 6.92582 15.2245 6.84999 15.0587 6.83332C14.8837 6.82415 14.717 6.88332 14.5912 6.99999L10.8337 9.99999C10.3503 10.4008 9.65784 10.4008 9.16701 9.99999L5.41701 6.99999C5.15784 6.80832 4.79951 6.83332 4.58368 7.05832C4.35868 7.28332 4.33368 7.64165 4.52451 7.89165L4.63368 7.99999L8.42534 10.9583C8.89201 11.325 9.45784 11.525 10.0503 11.525C10.6412 11.525 11.217 11.325 11.6828 10.9583L15.442 7.94999Z" fill="#9CA5BF"/>
</svg>
