<svg width="321" height="179" viewBox="0 0 321 179" fill="none" xmlns="http://www.w3.org/2000/svg">
<path d="M312.209 69.3108L308.812 78.0176L311.22 78.9607L314.617 70.2539L312.209 69.3108Z" fill="#367CFF"/>
<path d="M100.049 47.9606L98.1229 49.6889L104.347 56.6526L106.273 54.9243L100.049 47.9606Z" fill="#0CBC8B"/>
<path d="M128.584 79.1289L121.117 84.7333L122.668 86.8069L130.135 81.2025L128.584 79.1289Z" fill="#367CFF"/>
<path d="M214.947 14.8161L213.176 16.7027L219.97 23.1093L221.742 21.2227L214.947 14.8161Z" fill="#367CFF"/>
<path d="M165.543 16.8993L160.893 25.0041L163.134 26.2952L167.784 18.1904L165.543 16.8993Z" fill="#0CBC8B"/>
<path d="M233.065 86.2083L230.878 87.5908L235.857 95.4966L238.044 94.1141L233.065 86.2083Z" fill="#0CBC8B"/>
<path d="M131.684 124.706L129.372 125.863L133.541 134.226L135.854 133.068L131.684 124.706Z" fill="#0CBC8B"/>
<path d="M97.848 102.702L95.1689 111.656L97.645 112.4L100.324 103.446L97.848 102.702Z" fill="#367CFF"/>
<path d="M259.688 130.605L251.939 135.812L253.379 137.964L261.128 132.757L259.688 130.605Z" fill="#367CFF"/>
<path d="M260.848 -5.38479e-05L256.199 8.10452L258.44 9.3956L263.09 1.29103L260.848 -5.38479e-05Z" fill="#0CBC8B"/>
<path d="M2.4079 66.3042L0 67.2473L3.39635 75.9541L5.80425 75.011L2.4079 66.3042Z" fill="#0CBC8B"/>
<path d="M252.364 55.5478L250.814 57.6214L258.281 63.2258L259.831 61.1522L252.364 55.5478Z" fill="#0CBC8B"/>
<path d="M42.6188 17.3512L35.8243 23.7578L37.596 25.6444L44.3905 19.2378L42.6188 17.3512Z" fill="#367CFF"/>
<path d="M117.876 9.72212L115.634 11.0132L120.284 19.118L122.526 17.8269L117.876 9.72212Z" fill="#367CFF"/>
<path d="M26.4567 111.482L21.4778 119.387L23.6642 120.77L28.6431 112.864L26.4567 111.482Z" fill="#0CBC8B"/>
<path d="M4.40384 133.138L2.96382 135.291L10.7166 140.498L12.1566 138.345L4.40384 133.138Z" fill="#367CFF"/>
<path d="M303.509 29.8985L301.268 31.1895L305.918 39.2941L308.159 38.003L303.509 29.8985Z" fill="#367CFF"/>
<path d="M206.375 51.9854L200.151 58.9491L202.076 60.6774L208.301 53.7137L206.375 51.9854Z" fill="#367CFF"/>
<path d="M151.734 130.478L147.564 138.841L149.877 139.999L154.046 131.636L151.734 130.478Z" fill="#0CBC8B"/>
<path d="M185.571 108.475L183.095 109.219L185.774 118.173L188.25 117.429L185.571 108.475Z" fill="#367CFF"/>
<path d="M186.405 113.585L177.593 106.873C177.4 106.726 177.178 106.62 176.941 106.564C176.704 106.507 176.459 106.5 176.219 106.544C175.98 106.588 175.753 106.681 175.551 106.817C175.35 106.954 175.179 107.131 175.05 107.337C174.823 107.726 174.748 108.185 174.84 108.626C174.931 109.066 175.183 109.457 175.546 109.722L177.435 111.161L169.421 109.369C168.533 109.154 167.307 109.459 167.132 110.473C167.039 110.858 167.08 111.264 167.247 111.624C167.414 111.983 167.697 112.276 168.051 112.453C168.047 112.461 168.044 112.469 168.042 112.478C168.041 112.484 168.041 112.491 168.042 112.498L166.673 112.167C166.419 112.105 166.155 112.102 165.9 112.156C165.645 112.209 165.405 112.32 165.197 112.479C164.99 112.637 164.821 112.84 164.702 113.073C164.583 113.305 164.517 113.562 164.509 113.823C164.506 114.235 164.643 114.635 164.899 114.957C165.154 115.28 165.512 115.504 165.913 115.594L166.495 115.734C166.499 115.753 166.506 115.771 166.516 115.788C166.1 115.784 165.697 115.928 165.378 116.195C165.059 116.462 164.845 116.834 164.774 117.245C164.71 117.696 164.819 118.155 165.077 118.53C165.336 118.905 165.726 119.168 166.17 119.267L167.618 119.618C167.594 119.627 167.573 119.642 167.556 119.662C167.539 119.681 167.527 119.704 167.521 119.729C167.515 119.759 167.518 119.79 167.529 119.819C167.158 119.918 166.83 120.137 166.595 120.442C166.361 120.747 166.232 121.121 166.23 121.505C166.236 121.91 166.378 122.3 166.633 122.614C166.888 122.927 167.241 123.145 167.635 123.232L179.843 126.188C181.55 126.601 183.342 126.494 184.989 125.88C186.636 125.266 188.062 124.174 189.085 122.742C189.967 121.508 190.334 119.978 190.108 118.477C189.882 116.976 189.081 115.623 187.875 114.704L186.405 113.585Z" fill="#E98862"/>
<g opacity="0.2">
<path opacity="0.2" d="M175.976 114.267C175.965 114.308 175.94 114.344 175.904 114.366C175.868 114.388 175.825 114.395 175.783 114.386L168.163 112.67C168.142 112.665 168.123 112.656 168.106 112.644C168.088 112.632 168.073 112.616 168.062 112.598C168.051 112.58 168.043 112.56 168.039 112.539C168.036 112.518 168.036 112.497 168.041 112.476C168.046 112.455 168.054 112.436 168.067 112.418C168.079 112.401 168.094 112.386 168.112 112.375C168.13 112.363 168.15 112.356 168.171 112.352C168.192 112.348 168.214 112.349 168.234 112.354L175.854 114.07C175.875 114.075 175.895 114.083 175.912 114.096C175.929 114.108 175.944 114.124 175.956 114.142C175.967 114.16 175.975 114.18 175.978 114.201C175.982 114.222 175.981 114.243 175.976 114.264L175.976 114.267Z" fill="#0C0C0C"/>
</g>
<g opacity="0.2">
<path opacity="0.2" d="M175.313 117.656C175.303 117.697 175.277 117.733 175.241 117.755C175.205 117.777 175.161 117.784 175.12 117.775L166.616 115.861C166.595 115.856 166.575 115.847 166.558 115.835C166.54 115.823 166.525 115.807 166.514 115.789C166.503 115.771 166.495 115.751 166.492 115.73C166.488 115.709 166.489 115.687 166.493 115.666C166.504 115.625 166.53 115.59 166.566 115.567C166.602 115.544 166.645 115.536 166.687 115.544L175.191 117.458C175.212 117.463 175.232 117.471 175.249 117.484C175.267 117.496 175.281 117.511 175.293 117.53C175.304 117.548 175.312 117.568 175.315 117.589C175.319 117.61 175.318 117.631 175.313 117.652V117.656Z" fill="#0C0C0C"/>
</g>
<g opacity="0.2">
<path opacity="0.2" d="M174.618 121.33C174.607 121.371 174.582 121.406 174.546 121.428C174.51 121.45 174.467 121.458 174.425 121.448L167.642 119.922C167.6 119.912 167.564 119.887 167.541 119.851C167.518 119.814 167.51 119.77 167.52 119.728C167.529 119.687 167.555 119.65 167.591 119.627C167.627 119.604 167.671 119.596 167.713 119.606L174.496 121.132C174.517 121.137 174.537 121.146 174.554 121.158C174.572 121.17 174.586 121.186 174.598 121.204C174.609 121.222 174.617 121.242 174.62 121.263C174.624 121.284 174.623 121.306 174.619 121.327L174.618 121.33Z" fill="#0C0C0C"/>
</g>
<path d="M144.571 67.4202L149.49 57.4851C149.599 57.2668 149.751 57.0734 149.938 56.9174C150.124 56.7613 150.341 56.6458 150.575 56.5785C150.809 56.5111 151.054 56.4932 151.295 56.526C151.536 56.5588 151.768 56.6415 151.975 56.7688C152.351 57.0157 152.622 57.3936 152.735 57.8292C152.848 58.2649 152.796 58.7272 152.589 59.1265L151.534 61.2569L157.919 56.0846C158.619 55.4969 159.853 55.2245 160.459 56.0548C160.713 56.359 160.857 56.7406 160.867 57.1371C160.877 57.5337 160.752 57.9218 160.513 58.2383C160.52 58.2435 160.527 58.2495 160.533 58.2561C160.537 58.2618 160.54 58.2678 160.542 58.2739L161.622 57.3672C161.822 57.1995 162.057 57.0786 162.309 57.0134C162.562 56.9481 162.826 56.9402 163.082 56.9901C163.338 57.04 163.58 57.1466 163.789 57.3019C163.999 57.4573 164.172 57.6576 164.294 57.8883C164.48 58.2554 164.535 58.6753 164.449 59.0778C164.362 59.4803 164.141 59.841 163.821 60.0996L163.362 60.4853C163.367 60.5037 163.369 60.5229 163.367 60.5419C163.737 60.3536 164.163 60.3035 164.567 60.4006C164.971 60.4977 165.328 60.7357 165.573 61.072C165.83 61.448 165.936 61.9074 165.87 62.3585C165.805 62.8096 165.571 63.2192 165.217 63.5055L164.076 64.4631C164.102 64.4608 164.128 64.4648 164.151 64.4746C164.175 64.4844 164.196 64.4997 164.213 64.5194C164.232 64.5439 164.243 64.5732 164.245 64.6039C164.622 64.5279 165.013 64.5781 165.359 64.7467C165.704 64.9152 165.984 65.1929 166.157 65.5368C166.331 65.9017 166.377 66.3148 166.287 66.7091C166.198 67.1033 165.978 67.4558 165.664 67.7093L156.036 75.7899C154.69 76.9204 153.037 77.6221 151.289 77.805C149.542 77.988 147.78 77.6438 146.229 76.8167C144.892 76.1036 143.885 74.8963 143.422 73.4512C142.959 72.0061 143.077 70.4371 143.75 69.0775L144.571 67.4202Z" fill="#E98862"/>
<g opacity="0.2">
<path opacity="0.2" d="M154.217 63.389C154.245 63.4217 154.284 63.4422 154.326 63.4461C154.369 63.4501 154.411 63.4371 154.444 63.4101L160.511 58.4822C160.544 58.4552 160.565 58.416 160.57 58.3732C160.574 58.3305 160.561 58.2878 160.534 58.2544C160.507 58.2211 160.468 58.1998 160.426 58.1953C160.383 58.1909 160.34 58.2036 160.307 58.2306L154.24 63.1585C154.207 63.1855 154.186 63.2244 154.181 63.2669C154.177 63.3093 154.189 63.3518 154.216 63.3852L154.217 63.389Z" fill="#0C0C0C"/>
</g>
<g opacity="0.2">
<path opacity="0.2" d="M156.312 66.1304C156.34 66.163 156.379 66.1834 156.421 66.1873C156.464 66.1912 156.506 66.1782 156.539 66.1511L163.31 60.6517C163.343 60.6247 163.363 60.5857 163.368 60.5432C163.372 60.5008 163.36 60.4583 163.333 60.425C163.305 60.3932 163.267 60.373 163.225 60.3685C163.183 60.3641 163.141 60.3757 163.107 60.4011L156.334 65.8995C156.301 65.9265 156.28 65.9655 156.275 66.0079C156.271 66.0504 156.283 66.0929 156.31 66.1262L156.312 66.1304Z" fill="#0C0C0C"/>
</g>
<g opacity="0.2">
<path opacity="0.2" d="M158.565 69.1123C158.592 69.1449 158.631 69.1654 158.673 69.1694C158.716 69.1733 158.758 69.1604 158.791 69.1333L164.192 64.7466C164.225 64.7195 164.246 64.6803 164.251 64.6376C164.255 64.5949 164.243 64.5521 164.216 64.5188C164.189 64.4854 164.149 64.4642 164.107 64.4597C164.064 64.4552 164.021 64.4679 163.988 64.495L158.586 68.8817C158.553 68.9087 158.532 68.9477 158.527 68.9901C158.523 69.0326 158.535 69.0751 158.562 69.1084L158.565 69.1123Z" fill="#0C0C0C"/>
</g>
<path d="M34.1586 58.9018C34.1586 58.9018 33.4648 69.3336 31.1228 73.1174C24.3797 84.0132 22.4261 96.2703 29.1786 102.674C35.9311 109.079 79.0007 109.167 82.2637 94.4382C85.0106 82.0376 79.1158 80.7041 77.6813 70.4757C77.0324 65.847 75.2469 56.1412 75.2469 56.1412" fill="#0A0A0A"/>
<path d="M71.1168 92.2786C71.0425 92.2689 70.2175 105.986 54.3143 104.79C43.3047 103.964 39.3793 92.2585 39.1272 92.2585C40.3142 92.0056 42.3129 91.6381 42.84 91.356C44.5738 90.4228 46.718 89.4513 47.2777 86.0778C47.6009 84.1349 47.0531 74.1865 47.2215 72.2184L64.121 75.9993C63.8847 80.1542 62.2321 89.7858 68.0248 91.4904C68.9885 91.7731 70.0268 92.0325 71.1168 92.2786Z" fill="#E98862"/>
<path opacity="0.5" d="M64.3578 87.5548C64.0931 86.7 63.9227 85.8187 63.8495 84.9267C63.6638 82.8912 63.7009 80.8415 63.96 78.814C60.5254 78.3494 57.2897 76.9288 54.6206 74.7135C54.3068 75.8747 52.5808 80.949 53.0587 82.0525C53.9613 84.1389 58.2055 87.5548 64.3578 87.5548Z" fill="#0C0C0C"/>
<path d="M62.1726 83.2814C55.5097 83.9291 46.889 81.2569 45.1032 72.3658L43.4919 64.3436C41.7061 55.4528 44.9186 47.3056 53.2727 45.6208C61.6271 43.9369 69.3191 49.8838 71.1049 58.7749L71.8184 62.3265C72.5035 65.7379 74.0602 82.1286 62.1726 83.2814Z" fill="#E98862"/>
<path opacity="0.1" d="M57.9373 71.6307C59.0338 71.4996 59.8449 70.7401 59.7489 69.9342C59.6529 69.1284 58.6863 68.5814 57.5898 68.7124C56.4934 68.8435 55.6823 69.6031 55.7782 70.409C55.8742 71.2148 56.8408 71.7618 57.9373 71.6307Z" fill="#0C0C0C"/>
<path opacity="0.1" d="M69.5232 68.4088C69.6202 69.2135 70.5881 69.7597 71.6846 69.6302C71.874 69.6074 72.0606 69.565 72.2414 69.5036C72.2924 68.5441 72.2953 67.6212 72.2676 66.7667C71.963 66.6903 71.6469 66.6718 71.3355 66.712C70.2391 66.8415 69.4282 67.6008 69.5232 68.4088Z" fill="#0C0C0C"/>
<path opacity="0.5" d="M64.6784 70.8961C64.6838 70.8955 64.6892 70.8946 64.6945 70.8935C65.0331 70.8228 65.3676 70.7334 65.6963 70.6257C66.1869 70.4612 66.8274 70.1911 66.7395 69.7465C66.638 69.2401 64.1542 64.0535 63.8724 63.4644C63.8609 63.4379 63.8441 63.4139 63.8231 63.3939C63.8021 63.374 63.7773 63.3585 63.7502 63.3484C63.723 63.3383 63.6942 63.3337 63.6653 63.335C63.6363 63.3364 63.608 63.3435 63.5819 63.3561C63.5558 63.3686 63.5325 63.3863 63.5134 63.4081C63.4943 63.4298 63.4798 63.4552 63.4707 63.4828C63.4616 63.5103 63.4582 63.5394 63.4606 63.5683C63.4629 63.5972 63.4711 63.6253 63.4846 63.651C64.5436 65.8597 66.2493 69.4913 66.3178 69.8323C66.2641 69.9913 65.4504 70.3018 64.6105 70.4715C64.5826 70.476 64.5559 70.486 64.5319 70.5008C64.5079 70.5157 64.487 70.5351 64.4705 70.5581C64.454 70.581 64.4422 70.607 64.4356 70.6345C64.4291 70.662 64.4281 70.6905 64.4326 70.7184C64.4371 70.7464 64.447 70.7731 64.4619 70.7972C64.4767 70.8212 64.4961 70.8422 64.519 70.8587C64.5419 70.8753 64.5678 70.8871 64.5952 70.8937C64.6227 70.9002 64.6512 70.9012 64.679 70.8967L64.6784 70.8961Z" fill="#0C0C0C"/>
<path d="M36.826 67.2239L44.3156 65.758C49.9732 63.3873 51.5784 53.5073 51.5784 53.5073C51.5784 53.5073 58.5607 60.1705 75.2482 56.1412C75.2482 56.1412 71.6233 32.7985 46.9827 39.8856C39.0377 42.1701 33.4098 50.285 34.2468 61.0331C34.8334 68.5632 36.826 67.2239 36.826 67.2239Z" fill="#0A0A0A"/>
<path d="M46.166 74.97C43.6273 75.4819 41.0226 73.1754 40.5107 70.6308C39.9988 68.0862 41.7762 66.269 44.315 65.7567L45.9657 67.1977L48.3484 74.5293L46.166 74.97Z" fill="#E98862"/>
<path d="M65.6722 59.3283C66.3074 58.8782 67.0502 58.6047 67.8251 58.5356C68.2145 58.4982 68.6073 58.52 68.9901 58.6003C69.3762 58.6792 69.7509 58.8062 70.1054 58.9786L70.1164 58.9837C70.1557 59.0011 70.2002 59.0024 70.2404 58.9873C70.2806 58.9722 70.3134 58.942 70.3316 58.9031C70.3499 58.8641 70.3523 58.8196 70.3382 58.7789C70.3241 58.7383 70.2947 58.7047 70.2563 58.6855C69.8806 58.4868 69.4815 58.3362 69.0684 58.2373C68.6523 58.136 68.2234 58.0979 67.7961 58.1243C66.9305 58.1722 66.0935 58.4518 65.3723 58.9339C65.3454 58.9521 65.3224 58.9755 65.3045 59.0027C65.2867 59.0299 65.2744 59.0603 65.2683 59.0923C65.2622 59.1242 65.2624 59.1571 65.269 59.1889C65.2756 59.2208 65.2884 59.2511 65.3067 59.278C65.325 59.3049 65.3484 59.3279 65.3755 59.3457C65.4027 59.3635 65.4331 59.3758 65.465 59.3818C65.4969 59.3879 65.5297 59.3875 65.5615 59.3808C65.5933 59.3741 65.6234 59.3612 65.6502 59.3428L65.6561 59.339L65.6722 59.3283Z" fill="#0C0C0C"/>
<path d="M58.8305 60.2757C57.98 60.1061 57.0996 60.1684 56.2814 60.4561C55.8769 60.5957 55.4956 60.7953 55.1503 61.0483C54.8063 61.2981 54.4951 61.5903 54.2241 61.9181C54.1967 61.9507 54.183 61.9926 54.1858 62.0351C54.1886 62.0776 54.2078 62.1174 54.2392 62.1461C54.2706 62.1748 54.3119 62.1901 54.3544 62.189C54.3969 62.1878 54.4373 62.1703 54.4671 62.1399L54.4758 62.1308C54.7374 61.8357 55.0348 61.5746 55.3613 61.3537C55.6844 61.1329 56.0389 60.9622 56.4129 60.8476C57.1551 60.6139 57.9459 60.5815 58.7048 60.7537L58.7235 60.7585C58.7872 60.774 58.8544 60.7634 58.9103 60.7293C58.9663 60.6951 59.0064 60.64 59.0218 60.5762C59.0372 60.5124 59.0267 60.4451 58.9926 60.389C58.9585 60.333 58.9035 60.2928 58.8398 60.2773L58.8305 60.2757Z" fill="#0C0C0C"/>
<path d="M44.3208 65.6344C49.3553 63.7562 51.0261 60.2726 51.5406 57.6801C51.8736 55.9511 51.8424 54.1715 51.4491 52.4553L51.2934 52.4984C51.6807 54.1922 51.7107 55.9484 51.3813 57.6545C50.8732 60.2046 49.2264 63.6325 44.2642 65.4831L44.3208 65.6344Z" fill="#0C0C0C"/>
<path d="M84.0689 93.9104L131.873 109.922L117.838 116.174L141.675 67.1734L161.156 76.2707L139.04 126.074C137.921 128.592 135.936 130.624 133.446 131.796C130.956 132.969 128.129 133.205 125.48 132.461L125.004 132.326L76.4762 118.673L84.0689 93.9104Z" fill="#367CFF"/>
<path d="M54.0176 101.361C43.0004 100.841 42.5366 91.4708 42.5366 91.4708C42.5366 91.4708 37.0777 91.8244 33.4489 92.3163C27.5079 93.1216 23.5886 95.1403 20.4694 98.2655C17.568 101.173 15.8016 104.319 17.6708 124.401C19.0242 138.943 18.0719 170.927 18.0719 170.927H85.2091C85.2091 170.927 89.8972 124.718 90.453 118.173C91.5137 105.678 94.5103 102.919 88.4387 96.4822C84.0357 91.8141 72.6684 91.4708 68.093 91.4715C68.0184 91.4715 69.0215 102.07 54.0176 101.361Z" fill="#367CFF"/>
<path d="M66.9118 72.6486C64.747 73.7516 62.2771 74.1004 59.8924 73.6398C59.8098 73.6243 59.7246 73.6327 59.6466 73.6639C59.5686 73.6951 59.501 73.7479 59.4519 73.8162C59.4027 73.8844 59.3739 73.9653 59.3689 74.0493C59.3639 74.1333 59.3828 74.217 59.4235 74.2907C60.1344 75.5458 61.8207 77.6908 64.7137 76.8165C66.5815 76.2517 67.2876 74.3263 67.5494 73.135C67.5673 73.0526 67.5614 72.9668 67.5323 72.8877C67.5032 72.8085 67.4522 72.7394 67.3852 72.6883C67.3183 72.6372 67.2381 72.6063 67.1543 72.5993C67.0704 72.5923 66.9863 72.6094 66.9118 72.6486Z" fill="white"/>
<path d="M67.0473 63.0012C67.625 63.0012 68.0933 62.5319 68.0933 61.953C68.0933 61.3741 67.625 60.9048 67.0473 60.9048C66.4695 60.9048 66.0012 61.3741 66.0012 61.953C66.0012 62.5319 66.4695 63.0012 67.0473 63.0012Z" fill="#0C0C0C"/>
<path d="M56.9956 64.7646C57.5733 64.7646 58.0417 64.2953 58.0417 63.7164C58.0417 63.1375 57.5733 62.6682 56.9956 62.6682C56.4179 62.6682 55.9495 63.1375 55.9495 63.7164C55.9495 64.2953 56.4179 64.7646 56.9956 64.7646Z" fill="#0C0C0C"/>
<path d="M90.3037 122.726C90.2969 122.727 90.2901 122.727 90.2833 122.726C90.2409 122.721 90.2023 122.699 90.176 122.665C90.1497 122.631 90.1379 122.588 90.1431 122.546L91.1827 114.101C91.1849 114.08 91.1914 114.06 91.2017 114.041C91.2121 114.022 91.2261 114.006 91.2429 113.993C91.2597 113.98 91.279 113.97 91.2995 113.965C91.3201 113.959 91.3416 113.958 91.3627 113.961C91.3838 113.963 91.4041 113.97 91.4226 113.981C91.4411 113.991 91.4573 114.005 91.4704 114.022C91.4834 114.039 91.4931 114.058 91.4987 114.078C91.5043 114.099 91.5059 114.12 91.5033 114.142L90.4637 122.586C90.4585 122.625 90.4394 122.66 90.41 122.686C90.3806 122.712 90.3428 122.726 90.3037 122.726Z" fill="#0C0C0C"/>
<path d="M260.244 57.5668C260.244 57.5668 256.239 53.0602 256.704 44.6205C257.063 38.0859 262.094 43.3706 262.094 43.3706C262.094 43.3706 262.398 38.6678 265.638 39.7876C268.877 40.9073 269.787 46.0929 269.787 46.0929" fill="#0C0C0C"/>
<path d="M282.751 43.7629C282.751 43.7629 298.926 48.8401 288.487 70.0893L287.005 69.8951L283.996 69.5016" fill="#0C0C0C"/>
<path d="M259.74 92.2442C259.814 92.2345 260.636 105.906 276.487 104.714C287.46 103.891 291.372 92.2251 291.624 92.2251C290.441 91.9728 288.448 91.6066 287.923 91.3255C286.195 90.3952 284.057 89.4273 283.5 86.0651C283.179 84.1271 283.724 74.2134 283.556 72.2523L266.712 76.0193C266.948 80.1603 268.595 89.7602 262.822 91.4593C261.861 91.7403 260.825 91.9987 259.74 92.2442Z" fill="#E98862"/>
<path opacity="0.52" d="M266.477 87.5365C266.74 86.6844 266.91 85.8059 266.983 84.9168C267.168 82.888 267.132 80.8449 266.873 78.8242C270.297 78.3613 273.522 76.9454 276.183 74.7376C276.495 75.8949 278.215 80.9523 277.739 82.0523C276.839 84.1315 272.608 87.5365 266.477 87.5365Z" fill="#0C0C0C"/>
<path d="M268.496 82.9066C275.13 83.6225 283.75 81.0543 285.626 72.2128L287.319 64.2349C289.193 55.3947 286.081 47.2387 277.773 45.469C269.465 43.6993 261.734 49.5443 259.859 58.3858L259.109 61.9177C258.873 63.1348 258.72 64.3667 258.651 65.6047C258.444 68.8752 258.143 73.8507 259.65 77.5577C261.071 81.0576 264.258 82.449 268.496 82.9066Z" fill="#E98862"/>
<path d="M263.227 62.5375C263.805 62.5375 264.273 62.0682 264.273 61.4893C264.273 60.9104 263.805 60.4411 263.227 60.4411C262.649 60.4411 262.181 60.9104 262.181 61.4893C262.181 62.0682 262.649 62.5375 263.227 62.5375Z" fill="#0C0C0C"/>
<path d="M273.163 63.5858C273.74 63.5858 274.209 63.1165 274.209 62.5376C274.209 61.9587 273.74 61.4894 273.163 61.4894C272.585 61.4894 272.116 61.9587 272.116 62.5376C272.116 63.1165 272.585 63.5858 273.163 63.5858Z" fill="#0C0C0C"/>
<path d="M284.539 74.7964C287.063 75.3343 289.684 73.0637 290.221 70.5337C290.758 68.0037 289.007 66.1728 286.482 65.635L284.822 67.053L282.368 74.334L284.539 74.7964Z" fill="#E98862"/>
<path d="M282.833 70.2177C282.833 70.2177 284.474 57.5043 280.832 55.9717C278.408 54.951 271.562 57.3194 266.1 55.1003C263.71 54.1288 261.229 54.2746 260.755 55.4024C260.568 55.849 260.351 48.85 265.251 44.5497C269.152 41.1256 279.515 42.0087 283.863 44.2553C295.9 50.4755 286.896 66.2914 286.896 66.2914L285.467 70.5011L282.833 70.2177Z" fill="#0C0C0C"/>
<g opacity="0.52">
<path opacity="0.52" d="M265.949 71.1276L265.932 71.125C265.118 70.9537 263.772 70.5745 263.899 69.9654C264.005 69.4599 266.529 64.2925 266.817 63.705C266.842 63.6545 266.885 63.6159 266.939 63.5977C266.992 63.5794 267.05 63.5831 267.1 63.6079C267.151 63.6327 267.189 63.6765 267.208 63.7298C267.226 63.783 267.222 63.8413 267.197 63.8919C266.078 66.18 264.386 69.709 264.313 70.0525C264.363 70.2144 265.176 70.5321 266.019 70.7092C266.072 70.7211 266.118 70.7529 266.148 70.798C266.179 70.8431 266.19 70.8981 266.181 70.9517C266.172 71.0053 266.143 71.0534 266.1 71.0862C266.057 71.1189 266.003 71.1337 265.949 71.1276Z" fill="#0C0C0C"/>
</g>
<path d="M265.761 58.2104C264.961 57.806 264.067 57.6251 263.173 57.6868C262.734 57.7145 262.302 57.8081 261.89 57.9643C261.483 58.117 261.097 58.3207 260.741 58.5705C260.681 58.6085 260.639 58.6684 260.623 58.7374C260.607 58.8063 260.619 58.8788 260.656 58.939C260.693 58.9993 260.752 59.0425 260.821 59.0594C260.889 59.0763 260.962 59.0655 261.022 59.0294L261.041 59.0187C261.368 58.8157 261.719 58.6547 262.085 58.5394C262.447 58.4237 262.824 58.3635 263.203 58.361C263.953 58.35 264.693 58.5378 265.347 58.9053L265.372 58.9199C265.417 58.9473 265.468 58.9652 265.521 58.9729C265.574 58.9805 265.627 58.9775 265.679 58.9642C265.731 58.9509 265.779 58.9275 265.822 58.8954C265.864 58.8632 265.9 58.823 265.927 58.7769C265.954 58.7308 265.972 58.6798 265.979 58.6269C265.986 58.574 265.983 58.5201 265.969 58.4685C265.956 58.4168 265.932 58.3683 265.9 58.3259C265.867 58.2834 265.827 58.2478 265.781 58.2211L265.761 58.2104Z" fill="#0C0C0C"/>
<path d="M271.742 59.8306C272.469 59.6438 273.232 59.6526 273.954 59.8561C274.32 59.9565 274.669 60.1116 274.988 60.3163C275.313 60.5223 275.611 60.7682 275.874 61.0484L275.889 61.063C275.939 61.1114 276.005 61.1387 276.075 61.1391C276.144 61.1395 276.211 61.1131 276.261 61.0653C276.312 61.0175 276.342 60.952 276.345 60.8826C276.348 60.8132 276.325 60.7451 276.28 60.6926C275.999 60.3595 275.678 60.0633 275.324 59.8108C274.967 59.554 274.572 59.3523 274.155 59.2124C273.307 58.9222 272.397 58.8663 271.52 59.0505C271.468 59.0618 271.419 59.0833 271.376 59.1136C271.332 59.144 271.295 59.1827 271.266 59.2274C271.208 59.3179 271.189 59.4277 271.211 59.5326C271.234 59.6376 271.298 59.7292 271.388 59.7873C271.478 59.8453 271.588 59.8651 271.693 59.8422L271.713 59.837L271.742 59.8306Z" fill="#0C0C0C"/>
<path d="M264.669 73.0889C267.025 73.6788 269.51 73.4651 271.731 72.4814C271.808 72.4478 271.893 72.4369 271.976 72.4498C272.059 72.4627 272.137 72.4991 272.2 72.5546C272.263 72.61 272.309 72.6824 272.333 72.7631C272.357 72.8438 272.357 72.9297 272.334 73.0106C271.92 74.3936 270.757 76.864 267.742 76.6593C265.795 76.5279 264.677 74.8094 264.155 73.7071C264.119 73.6307 264.105 73.5455 264.116 73.4616C264.126 73.3776 264.161 73.2985 264.215 73.2335C264.269 73.1686 264.34 73.1204 264.421 73.0948C264.501 73.0692 264.587 73.0671 264.669 73.0889Z" fill="white"/>
<path d="M274.018 46.3611C275.144 43.7129 274.601 40.9448 272.805 40.1784C271.01 39.412 268.642 40.9374 267.516 43.5855C266.39 46.2337 266.933 49.0018 268.728 49.7682C270.524 50.5346 272.892 49.0092 274.018 46.3611Z" fill="#0C0C0C"/>
<path d="M276.733 101.361C287.75 100.841 288.214 91.4708 288.214 91.4708C288.214 91.4708 293.673 91.8244 297.302 92.3163C303.243 93.1216 307.163 95.1403 310.281 98.2655C313.183 101.173 314.949 104.319 313.08 124.401C311.727 138.943 312.679 170.927 312.679 170.927H245.542C245.542 170.927 240.854 124.719 240.298 118.173C239.237 105.678 236.241 102.919 242.312 96.4822C246.715 91.8141 258.082 91.4708 262.658 91.4715C262.732 91.4715 261.73 102.07 276.733 101.361Z" fill="#367CFF"/>
<path d="M240.139 99.3763L222.781 136.25L188.55 110.456L174.954 128.572L220.281 162.727C220.687 163.029 221.111 163.306 221.55 163.556C222.845 164.283 224.271 164.748 225.745 164.923C227.219 165.098 228.713 164.98 230.142 164.577C231.571 164.173 232.907 163.492 234.073 162.571C235.239 161.65 236.212 160.508 236.938 159.211L237.134 158.86L263.617 111.496L240.139 99.3763Z" fill="#367CFF"/>
<path d="M315.255 171.251H9.51578C9.43007 171.251 9.34787 171.217 9.28727 171.156C9.22666 171.095 9.19262 171.013 9.19262 170.927C9.19262 170.841 9.22666 170.759 9.28727 170.698C9.34787 170.637 9.43007 170.603 9.51578 170.603H315.255C315.341 170.603 315.423 170.637 315.484 170.698C315.544 170.759 315.578 170.841 315.578 170.927C315.578 171.013 315.544 171.095 315.484 171.156C315.423 171.217 315.341 171.251 315.255 171.251Z" fill="#292A2E"/>
<path d="M248.754 122.762H85.0335V178.837H248.754V122.762Z" fill="white"/>
<path d="M248.916 179H84.8723V122.6H248.916V179ZM85.1954 178.676H248.593V122.924H85.1954V178.676Z" fill="#0C0C0C"/>
<path d="M76.9496 139.9L87.0559 135.377C87.278 135.278 87.5183 135.226 87.7615 135.224C88.0047 135.223 88.2455 135.273 88.4685 135.37C88.6916 135.467 88.892 135.61 89.057 135.789C89.222 135.968 89.348 136.179 89.427 136.41C89.5596 136.84 89.5282 137.304 89.3387 137.712C89.1492 138.12 88.8153 138.443 88.4016 138.619L86.2344 139.59L94.4463 139.675C95.3596 139.668 96.4842 140.246 96.4241 141.272C96.4267 141.669 96.2951 142.055 96.0507 142.367C95.8063 142.679 95.4636 142.899 95.0784 142.991C95.0807 142.999 95.082 143.008 95.0823 143.017C95.0814 143.024 95.08 143.03 95.0781 143.037L96.4865 143.027C96.7471 143.025 97.0048 143.082 97.2409 143.192C97.4769 143.303 97.6854 143.465 97.8511 143.667C98.0167 143.868 98.1355 144.105 98.1986 144.358C98.2617 144.611 98.2677 144.876 98.216 145.132C98.1262 145.533 97.9015 145.892 97.5793 146.148C97.2572 146.403 96.8572 146.54 96.4464 146.535L95.8472 146.54C95.8393 146.557 95.8284 146.573 95.8149 146.587C96.2204 146.678 96.5802 146.911 96.8301 147.243C97.08 147.576 97.2037 147.987 97.179 148.402C97.1389 148.857 96.9293 149.279 96.5921 149.585C96.2549 149.891 95.8149 150.059 95.3599 150.054L93.8714 150.065C93.8923 150.079 93.9095 150.099 93.9217 150.121C93.9338 150.144 93.9405 150.169 93.9412 150.194C93.9399 150.225 93.9298 150.254 93.9121 150.279C94.2508 150.461 94.5205 150.749 94.6797 151.1C94.8389 151.45 94.8789 151.843 94.7934 152.218C94.6956 152.611 94.4685 152.958 94.149 153.205C93.8295 153.452 93.4362 153.583 93.0328 153.578L80.4747 153.668C78.718 153.681 76.9976 153.167 75.5339 152.194C74.0703 151.22 72.9301 149.831 72.2596 148.204C71.6813 146.801 71.6718 145.227 72.233 143.818C72.7942 142.408 73.8819 141.273 75.265 140.654L76.9496 139.9Z" fill="#E98862"/>
<g opacity="0.2">
<path opacity="0.2" d="M86.9496 142.946C86.9502 142.988 86.9675 143.029 86.9978 143.059C87.028 143.089 87.0687 143.105 87.1112 143.105L94.9208 143.176C94.9636 143.176 95.0049 143.159 95.0354 143.129C95.066 143.099 95.0834 143.058 95.0838 143.015C95.0842 142.972 95.0675 142.931 95.0375 142.9C95.0075 142.87 94.9665 142.852 94.9237 142.852L87.1141 142.781C87.0713 142.781 87.0302 142.798 86.9999 142.829C86.9696 142.859 86.9525 142.9 86.9525 142.943L86.9496 142.946Z" fill="#0C0C0C"/>
</g>
<g opacity="0.2">
<path opacity="0.2" d="M86.8236 146.398C86.8242 146.44 86.8415 146.481 86.8717 146.511C86.9019 146.54 86.9427 146.557 86.9852 146.557L95.7006 146.636C95.7434 146.636 95.7845 146.619 95.8148 146.588C95.8451 146.558 95.8622 146.517 95.8622 146.474C95.8607 146.431 95.8432 146.391 95.8132 146.361C95.7832 146.331 95.743 146.313 95.7006 146.312L86.9852 146.233C86.9638 146.233 86.9426 146.237 86.9228 146.245C86.903 146.253 86.885 146.265 86.8699 146.28C86.8547 146.295 86.8426 146.313 86.8344 146.333C86.8262 146.353 86.822 146.374 86.822 146.395L86.8236 146.398Z" fill="#0C0C0C"/>
</g>
<g opacity="0.2">
<path opacity="0.2" d="M86.6656 150.133C86.6662 150.175 86.6835 150.216 86.7137 150.246C86.7439 150.275 86.7847 150.292 86.8272 150.292L93.7794 150.355C93.8222 150.355 93.8635 150.339 93.894 150.309C93.9246 150.279 93.942 150.237 93.9424 150.195C93.9428 150.152 93.9261 150.11 93.8961 150.08C93.8661 150.049 93.8251 150.032 93.7823 150.031L86.8301 149.968C86.7872 149.968 86.7461 149.985 86.7158 150.016C86.6855 150.046 86.6685 150.087 86.6685 150.13L86.6656 150.133Z" fill="#0C0C0C"/>
</g>
<path d="M79.8422 157.931L23.8099 170.694C21.9485 170.897 20.0654 170.665 18.3085 170.016C16.5516 169.368 14.9686 168.32 13.6837 166.955C12.3988 165.59 11.447 163.946 10.9029 162.151C10.3588 160.355 10.2373 158.458 10.5479 156.608L16.9601 104.927C17.4934 101.751 19.2639 98.9171 21.8822 97.0492C24.5005 95.1813 27.752 94.4321 30.9216 94.9665C34.0911 95.5008 36.919 97.275 38.7831 99.8985C40.6472 102.522 41.3949 105.78 40.8616 108.956L37.7738 145.948L76.7033 137.12L79.8422 157.931Z" fill="#367CFF"/>
<path d="M29.896 147.401C29.8555 147.401 29.8165 147.385 29.7869 147.357C29.7573 147.33 29.7392 147.292 29.7362 147.251C29.7333 147.211 29.7456 147.17 29.7709 147.139C29.7961 147.107 29.8324 147.086 29.8724 147.079L37.6804 145.409C37.7014 145.405 37.7229 145.406 37.7436 145.411C37.7642 145.416 37.7837 145.425 37.8008 145.438C37.8179 145.451 37.8323 145.467 37.8432 145.485C37.854 145.503 37.8611 145.524 37.864 145.545C37.8703 145.587 37.8595 145.63 37.8341 145.665C37.8086 145.699 37.7706 145.722 37.7282 145.729L29.9203 147.399C29.9123 147.401 29.9042 147.401 29.896 147.401Z" fill="#0C0C0C"/>
<path d="M25.491 170.927C25.4481 170.93 25.4059 170.915 25.3736 170.887C25.3414 170.858 25.3217 170.818 25.3189 170.775C25.3161 170.732 25.3305 170.69 25.3588 170.658C25.3871 170.626 25.4271 170.606 25.47 170.603L79.4906 157.854L76.4296 137.356L37.7324 145.727C37.7074 145.73 37.682 145.727 37.6582 145.719C37.6343 145.711 37.6127 145.697 37.5951 145.679C37.5774 145.661 37.5643 145.639 37.5568 145.614C37.5493 145.59 37.5476 145.565 37.5518 145.539L39.7225 124.404C39.7257 124.383 39.7331 124.363 39.7443 124.344C39.7555 124.326 39.7702 124.31 39.7875 124.298C39.8049 124.286 39.8245 124.277 39.8453 124.272C39.8661 124.268 39.8876 124.267 39.9086 124.271C39.9508 124.278 39.9885 124.302 40.0134 124.337C40.0382 124.372 40.0482 124.415 40.0411 124.458L37.9082 145.376L76.5049 136.999C76.5257 136.993 76.5474 136.992 76.5688 136.995C76.5901 136.997 76.6107 137.004 76.6293 137.015C76.6479 137.026 76.6641 137.041 76.677 137.058C76.69 137.075 76.6993 137.095 76.7046 137.116L79.8435 157.929C79.8534 157.97 79.8471 158.013 79.8258 158.049C79.8045 158.085 79.7699 158.112 79.7294 158.123L25.512 170.925C25.505 170.926 25.498 170.927 25.491 170.927Z" fill="#0C0C0C"/>
<path d="M253.801 149.614L243.695 145.092C243.473 144.992 243.233 144.94 242.989 144.939C242.746 144.938 242.505 144.988 242.282 145.085C242.059 145.182 241.859 145.325 241.694 145.504C241.529 145.683 241.403 145.894 241.324 146.125C241.191 146.555 241.223 147.019 241.412 147.427C241.602 147.835 241.936 148.158 242.35 148.333L244.517 149.305L236.304 149.39C235.392 149.383 234.267 149.96 234.327 150.987C234.324 151.384 234.456 151.77 234.7 152.082C234.945 152.394 235.287 152.614 235.673 152.705C235.67 152.714 235.669 152.723 235.668 152.732C235.669 152.738 235.671 152.745 235.673 152.751L234.265 152.741C234.004 152.74 233.746 152.796 233.51 152.907C233.274 153.018 233.066 153.18 232.9 153.381C232.734 153.583 232.615 153.819 232.552 154.072C232.489 154.326 232.483 154.59 232.535 154.846C232.625 155.248 232.849 155.607 233.172 155.862C233.494 156.118 233.894 156.254 234.304 156.25L234.904 156.254C234.912 156.272 234.923 156.287 234.936 156.301C234.531 156.392 234.171 156.625 233.921 156.958C233.671 157.291 233.547 157.701 233.572 158.117C233.612 158.571 233.822 158.994 234.159 159.3C234.496 159.606 234.936 159.773 235.392 159.769L236.88 159.779C236.859 159.794 236.842 159.813 236.83 159.836C236.817 159.858 236.811 159.883 236.81 159.909C236.811 159.939 236.821 159.969 236.839 159.994C236.5 160.176 236.231 160.464 236.071 160.814C235.912 161.165 235.872 161.558 235.958 161.933C236.056 162.325 236.283 162.673 236.602 162.92C236.922 163.167 237.315 163.298 237.719 163.293L250.277 163.383C252.034 163.395 253.754 162.882 255.218 161.908C256.681 160.934 257.821 159.545 258.492 157.918C259.07 156.515 259.08 154.941 258.518 153.531C257.957 152.121 256.87 150.986 255.486 150.367L253.801 149.614Z" fill="#E98862"/>
<g opacity="0.2">
<path opacity="0.2" d="M243.801 152.66C243.801 152.703 243.783 152.743 243.753 152.773C243.723 152.803 243.682 152.82 243.64 152.82L235.83 152.89C235.809 152.89 235.788 152.886 235.768 152.878C235.748 152.871 235.73 152.859 235.715 152.844C235.7 152.829 235.688 152.811 235.68 152.792C235.672 152.772 235.667 152.751 235.667 152.73C235.667 152.709 235.671 152.687 235.679 152.668C235.687 152.648 235.698 152.63 235.713 152.615C235.728 152.6 235.746 152.588 235.765 152.579C235.785 152.571 235.806 152.567 235.827 152.566L243.637 152.496C243.68 152.496 243.721 152.513 243.751 152.543C243.781 152.574 243.798 152.615 243.798 152.658L243.801 152.66Z" fill="#0C0C0C"/>
</g>
<g opacity="0.2">
<path opacity="0.2" d="M243.927 156.112C243.927 156.154 243.91 156.195 243.88 156.224C243.85 156.254 243.809 156.271 243.767 156.272L235.052 156.35C235.009 156.35 234.968 156.333 234.937 156.303C234.907 156.272 234.89 156.231 234.89 156.188C234.891 156.146 234.909 156.105 234.939 156.075C234.969 156.045 235.009 156.028 235.052 156.026L243.767 155.948C243.81 155.948 243.851 155.965 243.881 155.995C243.912 156.025 243.929 156.067 243.929 156.11L243.927 156.112Z" fill="#0C0C0C"/>
</g>
<g opacity="0.2">
<path opacity="0.2" d="M244.086 159.847C244.085 159.889 244.068 159.93 244.037 159.96C244.007 159.99 243.966 160.007 243.924 160.007L236.972 160.069C236.951 160.07 236.929 160.066 236.91 160.058C236.89 160.05 236.872 160.038 236.857 160.023C236.842 160.008 236.83 159.99 236.822 159.971C236.813 159.951 236.809 159.93 236.809 159.909C236.809 159.888 236.813 159.867 236.82 159.847C236.828 159.827 236.84 159.809 236.855 159.794C236.87 159.779 236.888 159.767 236.907 159.758C236.927 159.75 236.948 159.746 236.969 159.746L243.921 159.683C243.964 159.683 244.005 159.7 244.035 159.73C244.066 159.761 244.083 159.802 244.083 159.845L244.086 159.847Z" fill="#0C0C0C"/>
</g>
<path d="M254.14 167.646L306.941 170.694C308.802 170.897 310.685 170.665 312.442 170.017C314.199 169.368 315.782 168.32 317.067 166.955C318.352 165.591 319.304 163.946 319.848 162.151C320.392 160.356 320.513 158.458 320.203 156.608L313.792 104.925C313.528 103.353 312.957 101.848 312.113 100.496C311.268 99.1444 310.166 97.9727 308.87 97.0478C307.573 96.1229 306.108 95.463 304.557 95.1056C303.006 94.7483 301.4 94.7005 299.83 94.9651C298.261 95.2297 296.759 95.8014 295.41 96.6477C294.061 97.4939 292.892 98.5981 291.969 99.8971C291.046 101.196 290.387 102.665 290.031 104.219C289.674 105.773 289.626 107.382 289.89 108.955L292.978 148.213L254.372 146.833L254.14 167.646Z" fill="#367CFF"/>
<path d="M300.855 148.049C300.895 148.049 300.934 148.033 300.964 148.005C300.994 147.978 301.012 147.94 301.015 147.899C301.018 147.858 301.005 147.818 300.98 147.786C300.955 147.754 300.919 147.733 300.878 147.727L293.071 147.676C293.05 147.672 293.028 147.673 293.007 147.678C292.987 147.683 292.967 147.692 292.95 147.705C292.933 147.717 292.918 147.733 292.908 147.752C292.897 147.77 292.89 147.79 292.887 147.812C292.88 147.854 292.891 147.897 292.917 147.932C292.942 147.966 292.98 147.989 293.023 147.995L300.831 148.047C300.839 148.048 300.847 148.049 300.855 148.049Z" fill="#0C0C0C"/>
<path d="M305.26 170.927C305.303 170.93 305.345 170.915 305.378 170.887C305.41 170.858 305.43 170.818 305.432 170.775C305.435 170.732 305.421 170.69 305.392 170.658C305.364 170.626 305.324 170.606 305.281 170.603L254.491 167.57L254.644 147.072L293.018 147.995C293.043 147.998 293.068 147.996 293.092 147.987C293.116 147.979 293.137 147.965 293.155 147.947C293.173 147.929 293.186 147.907 293.193 147.883C293.201 147.858 293.203 147.833 293.198 147.808L291.028 124.405C291.025 124.384 291.017 124.364 291.006 124.346C290.995 124.328 290.98 124.312 290.963 124.3C290.945 124.287 290.926 124.278 290.905 124.274C290.884 124.269 290.863 124.269 290.842 124.273C290.821 124.276 290.801 124.284 290.783 124.295C290.765 124.306 290.749 124.321 290.737 124.338C290.724 124.356 290.716 124.375 290.711 124.396C290.706 124.417 290.705 124.438 290.709 124.459L292.843 147.644L254.57 146.715C254.549 146.709 254.528 146.708 254.506 146.711C254.485 146.713 254.464 146.72 254.446 146.731C254.427 146.742 254.411 146.757 254.398 146.774C254.385 146.791 254.376 146.811 254.37 146.832L254.14 167.645C254.13 167.686 254.136 167.729 254.157 167.765C254.179 167.801 254.213 167.828 254.254 167.839L305.238 170.924C305.245 170.925 305.253 170.926 305.26 170.927Z" fill="#0C0C0C"/>
<path d="M123.849 159.454H119.557L117.15 150.097C117.061 149.764 116.909 149.076 116.694 148.032C116.48 146.989 116.356 146.288 116.323 145.931C116.275 146.369 116.153 147.074 115.958 148.044C115.764 149.015 115.614 149.707 115.509 150.122L113.114 159.454H108.834L104.299 141.644H108.007L110.281 151.365C110.678 153.16 110.966 154.716 111.144 156.031C111.192 155.568 111.304 154.851 111.478 153.881C111.653 152.911 111.817 152.157 111.971 151.621L114.56 141.644H118.123L120.712 151.621C120.825 152.068 120.967 152.75 121.138 153.668C121.308 154.585 121.437 155.373 121.526 156.031C121.607 155.398 121.736 154.608 121.913 153.662C122.091 152.715 122.252 151.95 122.398 151.366L124.66 141.644H128.368L123.849 159.454Z" fill="#0CBC8B"/>
<path d="M140.846 159.452H130.608V141.642H140.846V144.737H134.378V148.647H140.396V151.74H134.378V156.333H140.846V159.452Z" fill="#0CBC8B"/>
<path d="M144.553 159.452V141.642H148.323V156.335H155.532V159.453L144.553 159.452Z" fill="#0CBC8B"/>
<path d="M166.171 144.529C165.532 144.499 164.896 144.631 164.32 144.91C163.744 145.19 163.247 145.61 162.875 146.131C162.096 147.199 161.707 148.687 161.708 150.596C161.708 154.568 163.195 156.554 166.169 156.554C167.722 156.494 169.255 156.176 170.705 155.615V158.782C169.152 159.409 167.491 159.72 165.817 159.696C163.232 159.696 161.254 158.91 159.884 157.339C158.514 155.767 157.829 153.511 157.829 150.571C157.792 148.893 158.137 147.228 158.838 145.704C159.46 144.367 160.471 143.25 161.738 142.5C163.087 141.734 164.619 141.349 166.169 141.385C167.976 141.405 169.755 141.834 171.372 142.64L170.156 145.71C169.503 145.398 168.833 145.122 168.15 144.882C167.515 144.653 166.846 144.534 166.171 144.529Z" fill="#0CBC8B"/>
<path d="M190.62 150.522C190.62 153.47 189.89 155.736 188.431 157.32C186.972 158.904 184.881 159.696 182.158 159.696C179.435 159.696 177.343 158.904 175.884 157.32C174.425 155.737 173.696 153.463 173.696 150.498C173.696 147.533 174.428 145.27 175.891 143.706C177.354 142.143 179.451 141.361 182.182 141.361C184.913 141.361 187.003 142.149 188.45 143.725C189.897 145.301 190.62 147.567 190.62 150.522ZM177.647 150.522C177.647 152.512 178.024 154.011 178.778 155.018C179.532 156.025 180.659 156.528 182.158 156.528C185.165 156.528 186.669 154.526 186.669 150.522C186.669 146.51 185.173 144.504 182.182 144.504C180.683 144.504 179.552 145.01 178.789 146.021C178.026 147.032 177.646 148.533 177.647 150.522Z" fill="#0CBC8B"/>
<path d="M201.829 159.452L197.55 145.479H197.44C197.594 148.322 197.671 150.218 197.672 151.168V159.452H194.304V141.642H199.434L203.641 155.263H203.714L208.176 141.642H213.306V159.452H209.793V151.022C209.793 150.624 209.799 150.165 209.811 149.645C209.823 149.125 209.877 147.745 209.975 145.503H209.866L205.282 159.452H201.829Z" fill="#0CBC8B"/>
<path d="M228.017 159.452H217.78V141.642H228.017V144.737H221.55V148.647H227.568V151.74H221.55V156.333H228.017V159.452Z" fill="#0CBC8B"/>
</svg>
